<svg width="509" height="273" viewBox="0 0 509 273" fill="none" xmlns="http://www.w3.org/2000/svg">
<path d="M375.935 269.533C381.029 269.753 386.07 270.255 391.549 270.748C391.099 271.476 390.221 272.833 389.322 272.847C384.422 272.922 379.518 272.667 374.32 272.231C374.645 271.229 375.264 270.522 375.935 269.533Z" fill="#F3F2E0"/>
<path d="M411.22 247.682C410.161 249.503 409.159 251.296 407.979 252.963C406.992 254.358 405.798 255.607 404.388 256.596C404.687 253.463 405.294 250.655 405.925 247.533C406.024 246.6 406.098 245.982 406.173 245.364C407.797 245.287 409.422 245.209 411.451 245.135C411.856 245.139 411.87 245.617 411.637 246.042C411.283 246.823 411.161 247.18 411.04 247.537C411.04 247.537 411.2 247.598 411.22 247.682Z" fill="#84B9C6"/>
<path d="M237.203 252.004C237.294 251.853 237.577 251.886 237.888 252.105C237.741 252.256 237.568 252.222 237.203 252.004Z" fill="#422B5B"/>
<path d="M411.279 247.365C411.161 247.18 411.283 246.823 411.616 246.28C411.725 246.46 411.621 246.826 411.279 247.365Z" fill="#75A8B2"/>
<path d="M500.305 169.94C500.453 169.355 500.918 168.731 501.698 168.065C501.55 168.65 501.086 169.274 500.305 169.94Z" fill="#DDF7F0"/>
<path d="M326.745 240.077C324.388 236.286 322.031 232.495 319.34 228.158C318.656 227.399 318.306 227.186 317.956 226.973C317.956 226.973 318.018 226.981 318.149 226.587C316.501 218.055 316.834 210.029 319.394 202.078C325.08 184.421 336.868 172.592 354.291 165.74C356.387 165.379 358.108 165.024 360.029 164.76C360.229 164.852 360.664 164.909 360.664 164.909C366.543 165.13 372.422 165.351 378.653 166.039C379.005 166.506 379.006 167.002 378.567 167C376.964 166.977 375.757 167.153 374.645 166.905C365.066 164.768 356.148 166.907 347.929 171.659C342.739 174.66 338.188 178.676 337.235 185.166C339.917 185.315 342.073 185.161 344.104 185.593C357.926 188.532 365.625 197.702 369.389 210.782C370.447 214.459 370.418 219.861 372.832 221.379C375.837 223.268 380.857 221.951 385.008 222.018C385.174 222.021 385.342 222.03 385.506 222.011C396.025 220.795 405.574 217.31 410.177 207.081C412.202 202.582 411.635 196.916 412.531 191.999C414.028 197.544 415.239 202.868 416.451 208.192C416.003 214.214 415.555 220.235 415.003 226.708C413.759 229.888 412.216 232.524 411.571 235.364C410.495 240.1 407.798 241.591 403.288 240.759C387.043 237.763 372.05 231.914 358.838 221.763C356.27 219.789 353.335 217.682 350.28 217.065C341.216 215.234 334.049 223.626 336.255 233.559C337.28 238.174 339.563 242.51 340.918 247.429C335.955 245.282 331.35 242.679 326.745 240.077ZM322.431 226.803C323.451 228.786 324.471 230.769 325.49 232.751C324.592 211.611 323.498 208.857 337.323 189.068C331.19 189.297 327.201 192.739 324.462 197.281C318.98 206.373 318.824 216.14 322.431 226.803Z" fill="#9667B2"/>
<path d="M416.787 208.124C415.239 202.868 414.028 197.543 412.491 191.702C412.098 190.789 412.03 190.393 411.974 189.675C412.054 188.716 412.122 188.079 412.19 187.441C425.877 179.722 439.535 171.948 453.285 164.341C455.364 163.191 457.87 162.813 460.576 162.087C465.602 166.164 470.229 170.233 474.952 174.625C458.005 189.949 437.887 199.567 416.787 208.124Z" fill="#623097"/>
<path d="M372.909 119.865C377.544 108.444 381.632 96.9215 380.936 84.2618C380.872 83.1029 382.283 81.3789 383.458 80.73C386.496 79.0521 389.849 77.9551 392.958 76.3918C396.701 74.5102 397.899 76.3996 398.008 79.6693C398.17 84.4846 398.094 89.3078 398.213 94.5932C398.224 95.8018 398.141 96.545 397.808 97.8833C397.196 100.347 396.835 102.216 396.473 104.085C396.358 104.512 396.243 104.938 395.834 105.878C394.759 107.96 393.977 109.53 392.893 111.29C392.448 112.408 392.306 113.335 392.164 114.263C392.017 114.765 391.871 115.267 391.191 116.08C388.424 120.609 386.19 124.828 383.648 129.184C379.333 131.181 375.326 133.041 371.359 134.53C371.582 133.437 371.764 132.714 372.113 131.923C372.351 131.761 372.501 131.636 372.479 131.577C372.4 131.37 372.262 131.187 372.157 130.575C372.128 128.762 372.088 127.368 372.047 125.975C372.046 124.59 372.046 123.206 372.233 121.273C372.67 120.487 372.832 120.2 372.909 119.865Z" fill="#F4D873"/>
<path d="M371.318 134.901C375.326 133.041 379.333 131.181 383.646 129.425C383.933 129.847 383.92 130.166 383.911 130.485C383.501 131.158 383.092 131.832 382.428 132.88C382.174 133.254 382.041 133.468 382.041 133.468C381.919 133.594 381.797 133.72 381.176 134.096C380.529 134.698 380.383 135.052 380.236 135.406C379.716 136.455 379.196 137.503 378.434 138.894C378.192 139.236 378.038 139.469 378.038 139.469C377.568 140.149 377.099 140.828 376.388 141.874C376.148 142.24 376.073 142.331 376.073 142.331C375.923 142.468 375.772 142.605 375.043 143.023C373.685 144.589 372.905 145.876 372.125 147.163C371.616 147.972 371.108 148.782 370.379 149.914C370.158 150.237 370.069 150.35 370.069 150.35C369.745 150.71 369.422 151.071 368.548 151.766C367.368 153.111 366.739 154.119 366.11 155.128C365.783 155.611 365.456 156.094 364.638 156.841C363.769 157.721 363.392 158.336 363.015 158.951C362.172 160.204 361.329 161.457 360.237 163.18C359.935 163.99 359.882 164.329 359.83 164.668C358.108 165.024 356.387 165.379 354.397 165.436C358.146 158.846 362.162 152.555 366.43 146.006C368.227 142.133 369.773 138.517 371.318 134.901Z" fill="#E7B065"/>
<path d="M379.006 167.002C379.006 167.002 379.005 166.506 379.002 166.258C386.984 165.384 392.981 169.736 399.094 174.397C399.176 174.793 398.989 175.014 398.63 174.972C391.85 172.287 385.428 169.644 379.006 167.002Z" fill="#9679BD"/>
<path d="M384.194 130.373C383.92 130.166 383.933 129.847 383.953 129.287C386.19 124.828 388.424 120.609 390.984 116.247C389.032 120.822 386.755 125.541 384.194 130.373Z" fill="#E6AE88"/>
<path d="M399.268 174.68C402.317 177.337 405.275 180.107 408.213 183.324C408.194 183.772 407.987 184.01 407.691 183.86C404.593 180.812 401.791 177.913 398.989 175.015C398.989 175.015 399.176 174.793 399.268 174.68Z" fill="#9679BD"/>
<path d="M411.914 187.223C412.122 188.079 412.054 188.716 411.64 189.617C410.192 187.924 409.089 185.967 407.987 184.01C407.987 184.01 408.194 183.772 408.299 183.651C409.482 184.688 410.56 185.846 411.914 187.223Z" fill="#9679BD"/>
<path d="M372.438 147.044C372.905 145.876 373.685 144.589 374.784 143.185C374.319 144.353 373.536 145.64 372.438 147.044Z" fill="#E6AE88"/>
<path d="M366.412 155.027C366.739 154.119 367.368 153.111 368.299 152.031C367.971 152.948 367.343 153.937 366.412 155.027Z" fill="#E6AE88"/>
<path d="M363.305 158.896C363.392 158.336 363.769 157.721 364.425 157.044C364.334 157.603 363.965 158.222 363.305 158.896Z" fill="#E6AE88"/>
<path d="M392.893 111.29C393.119 111.822 393.043 112.545 392.973 113.632C392.978 113.996 392.569 114.126 392.367 114.194C392.306 113.335 392.448 112.408 392.893 111.29Z" fill="#E6AE88"/>
<path d="M360.029 164.76C359.882 164.329 359.935 163.989 360.038 163.505C360.271 163.683 360.453 164.007 360.65 164.62C360.664 164.909 360.229 164.852 360.029 164.76Z" fill="#E6AE88"/>
<path d="M378.162 139.505C378.038 139.469 378.192 139.236 378.233 139.185C378.275 139.134 378.433 139.334 378.433 139.334C378.433 139.334 378.285 139.541 378.162 139.505Z" fill="#E6AE88"/>
<path d="M370.162 150.417C370.069 150.35 370.158 150.236 370.172 150.208C370.187 150.179 370.254 150.483 370.162 150.417Z" fill="#E6AE88"/>
<path d="M380.46 135.242C380.383 135.052 380.529 134.698 380.954 134.237C381.048 134.446 380.866 134.762 380.46 135.242Z" fill="#E6AE88"/>
<path d="M382.16 133.504C382.041 133.468 382.174 133.254 382.208 133.207C382.242 133.16 382.279 133.54 382.16 133.504Z" fill="#E6AE88"/>
<path d="M376.158 142.402C376.073 142.331 376.148 142.24 376.157 142.216C376.167 142.192 376.244 142.474 376.158 142.402Z" fill="#E6AE88"/>
<path d="M133.992 35.5758C134.148 35.1101 134.312 35.0619 134.723 34.944C134.969 34.8744 135.29 35.1143 135.488 35.1391C135.775 59.131 135.859 83.098 135.953 107.065C135.997 118.384 136.06 129.703 136.118 141.487C135.42 140.19 134.114 138.43 134.107 136.665C133.982 105.095 134.014 73.5253 134.01 41.4892C134.005 39.3465 134.003 37.6699 133.992 35.5758Z" fill="#5B4695"/>
<path d="M139.369 163.949C138.994 163.558 138.994 163.124 138.988 162.364C146.769 159.255 154.559 156.507 162.853 158.652C155.135 160.406 147.439 162.156 139.369 163.949Z" fill="#511C87"/>
<path d="M180.742 163.064C180.78 163.224 180.598 163.497 180.189 163.877C180.058 163.652 180.244 163.384 180.742 163.064Z" fill="#3E225A"/>
<path d="M265.003 254.951C263.253 254.68 261.503 254.408 259.202 253.831C257.434 253.346 256.217 253.166 255 252.986C254.269 252.962 253.539 252.937 252.375 252.568C250.923 251.534 249.903 250.846 248.884 250.157C248.165 250.115 247.445 250.073 246.288 249.66C244.26 248.577 242.551 248.047 241.107 247.109C238.657 245.517 236.374 243.668 234.404 241.952C239.853 243.483 244.854 245.276 249.999 246.429C257.495 248.109 265.071 248.68 272.226 244.892C278.522 241.559 283.533 237.168 284.638 229.038C269.075 229.1 256.256 223.166 244.74 213.873C242.594 212.141 240.267 210.634 238.011 209.011C237.999 208.999 237.975 208.975 238.016 208.627C242.585 201.907 246.492 195.303 246.204 186.791C248.075 186.99 249.93 187.107 251.343 187.959C262.364 194.606 273.291 201.408 284.266 208.132C288.572 210.77 291.627 214.326 292.057 219.491C292.542 225.314 292.693 231.165 292.989 237.003C292.963 237.732 292.937 238.462 292.59 239.634C291.868 240.735 291.466 241.394 291.063 242.052C291.029 242.472 290.994 242.892 290.608 243.688C289.522 245.058 288.787 246.051 288.051 247.045C286.922 248.331 285.793 249.616 283.991 250.997C281.547 252.079 279.776 253.066 278.004 254.053C276.898 254.333 275.792 254.613 274.052 254.663C270.613 254.605 267.808 254.778 265.003 254.951Z" fill="#46137A"/>
<path d="M366.179 146.263C362.162 152.555 358.145 158.846 354.022 165.442C336.868 172.592 325.08 184.421 319.394 202.078C316.834 210.028 316.501 218.055 318.146 226.618C314.212 222.518 310.412 217.992 306.343 213.286C304.728 209.323 303.381 205.54 302.305 201.074C303.053 194.931 303.529 189.471 304.267 183.772C306.112 180.101 307.242 176.354 309.365 173.298C315.198 164.902 324.599 162.318 333.601 158.958C342.99 155.455 352.107 151.228 361.381 147.407C362.882 146.788 364.575 146.633 366.179 146.263Z" fill="#61251F"/>
<path d="M366.43 146.006C364.575 146.633 362.882 146.788 361.381 147.407C352.108 151.228 342.99 155.455 333.601 158.958C324.599 162.318 315.198 164.902 309.365 173.298C307.242 176.354 306.112 180.101 304.011 183.658C302.999 183.523 302.505 183.261 302.011 183C302.024 181.941 302.037 180.882 302.412 179.367C303.501 177.59 304.229 176.269 304.958 174.947C304.966 174.514 304.973 174.082 305.309 173.274C306.076 172.247 306.515 171.594 306.954 170.942C307.469 169.118 307.983 167.295 309.094 165.177C310.129 163.941 310.569 162.999 311.009 162.058C311.362 161.232 311.715 160.406 312.074 159.225C312.81 158.188 313.538 157.506 314.565 156.406C315.903 155.302 316.942 154.617 317.981 153.932C322.215 150.153 326.45 146.374 330.855 142.311C331.315 141.883 331.564 141.688 331.914 141.249C332.337 140.91 332.584 140.717 332.939 140.291C342.414 135.097 347.015 124.435 344.593 113.48C344.022 110.902 343.508 108.31 342.982 105.295C345.159 108.225 346.888 111.997 349.587 114.849C353.693 119.188 358.174 123.337 363.119 126.63C364.972 127.864 368.571 126.474 371.711 126.127C372.087 127.368 372.128 128.761 372.036 130.809C371.919 131.64 371.933 131.815 371.946 131.991C371.764 132.714 371.582 133.436 371.359 134.53C369.773 138.517 368.227 142.133 366.43 146.006Z" fill="#743025"/>
<path d="M234.02 241.927C236.374 243.668 238.657 245.517 241.107 247.109C242.551 248.047 244.26 248.577 245.928 249.644C229.821 245.867 214.838 239.004 201.135 229.531C191.38 222.788 182.333 214.994 177.63 203.798C175.668 199.128 174.924 193.442 175.456 188.412C175.787 185.29 178.993 181.63 181.907 179.817C186.627 176.879 192.168 175.261 198.01 173.331C201.068 173.734 203.481 173.892 205.947 174.447C203.49 180.769 203.362 186.802 204.813 192.918C201.183 188.023 197.914 183.134 194.553 178.107C193.862 179.571 192.699 181.54 191.971 183.659C188.148 194.796 192.555 207.673 203.531 216.894C213.599 225.352 223.85 233.591 234.02 241.927Z" fill="#402259"/>
<path d="M205.175 192.924C203.362 186.802 203.49 180.769 206.258 174.285C208.352 171.135 210.189 168.543 212.019 166.357C211.619 172.52 216.604 170.887 219.386 171.581C220.405 171.835 222.901 169.237 223.479 167.52C224.504 164.478 224.579 161.114 225.051 157.885C225.051 157.885 225.541 157.842 225.775 158.386C226.003 161.083 225.962 163.236 225.996 165.389C226.043 168.303 225.259 171.909 229.228 172.746C233.062 173.554 237.235 173.998 239.048 168.975C239.589 169.611 240.131 170.248 240.764 171.457C234.29 176.445 234.15 177.264 239.122 182.506C238.274 186.677 237.443 190.415 236.372 194.341C234.537 195.947 233.165 197.922 231.301 198.666C227.442 200.207 223.05 202.552 219.38 201.868C215.049 201.06 211.251 197.399 207.106 194.711C206.658 194.268 206.326 194.088 206.003 193.959C206.012 194.01 206.114 193.992 206.037 193.719C205.643 193.261 205.327 193.077 205.045 192.935C205.079 192.978 205.175 192.924 205.175 192.924Z" fill="#E7DBB9"/>
<path d="M236.612 194.154C237.443 190.416 238.274 186.677 239.505 182.437C243.753 180.844 247.601 179.753 251.45 178.662C259.454 182.774 268.096 186.012 275.272 191.257C281.757 195.997 286.639 202.93 292.615 209.162C293.002 209.428 293.066 209.809 293.066 209.809C293.707 216.666 294.492 223.515 294.897 230.386C295.016 232.395 294.052 234.468 293.287 236.757C292.693 231.165 292.542 225.314 292.057 219.492C291.627 214.326 288.572 210.77 284.266 208.132C273.291 201.408 262.364 194.606 251.343 187.959C249.93 187.107 248.075 186.99 245.902 186.922C242.457 189.593 239.535 191.873 236.612 194.154Z" fill="#402259"/>
<path d="M224.934 157.546C224.578 161.115 224.504 164.478 223.479 167.52C222.901 169.237 220.405 171.835 219.386 171.581C216.604 170.887 211.619 172.52 212.153 166.057C212.218 163.767 212.144 162.183 212.069 160.599C213.149 159.619 214.374 158.755 215.281 157.634C217.462 154.938 222.206 154.661 224.934 157.546Z" fill="#F9F0D9"/>
<path d="M239.096 168.648C237.235 173.998 233.062 173.555 229.228 172.746C225.258 171.909 226.043 168.303 225.996 165.389C225.962 163.237 226.003 161.083 226.008 158.467C229.243 156.59 232.474 155.493 235.831 158.931C237.031 162.108 238.024 164.559 239.018 167.01C239.06 167.447 239.102 167.884 239.096 168.648Z" fill="#F9F0D9"/>
<path d="M251.626 178.319C247.601 179.753 243.753 180.844 239.522 182.004C234.15 177.264 234.29 176.445 240.949 171.714C249.148 170.633 251.425 172.024 251.626 178.319Z" fill="#F4EAD8"/>
<path d="M211.895 160.268C212.144 162.183 212.219 163.767 212.159 165.651C210.189 168.543 208.352 171.135 206.204 173.888C203.481 173.892 201.068 173.734 198.389 173.282C200.153 169.62 201.747 165.848 204.371 163.034C206.025 161.26 209.219 160.92 211.895 160.268Z" fill="#F4EAD8"/>
<path d="M293.451 209.748C293.066 209.809 293.002 209.428 292.944 209.244C291.573 198.99 290.259 188.92 288.971 178.42C289.42 177.99 289.843 177.99 290.582 177.985C291.086 177.987 291.275 177.994 291.747 178.002C292.881 185.136 293.933 192.252 294.494 199.408C294.759 202.796 294.084 206.258 293.451 209.748Z" fill="#896561"/>
<path d="M301.735 183.273C302.505 183.261 302.999 183.523 303.75 183.897C303.53 189.471 303.053 194.931 302.301 200.696C299.146 195.269 299.788 189.424 301.735 183.273Z" fill="#68322B"/>
<path d="M239.257 166.752C238.024 164.559 237.031 162.108 236.06 159.243C239.368 160.429 240.236 163.104 239.257 166.752Z" fill="#E7DBB9"/>
<path d="M265.281 255.235C267.808 254.778 270.613 254.605 273.709 254.694C271.186 255.144 268.373 255.331 265.281 255.235Z" fill="#402259"/>
<path d="M278.221 254.274C279.775 253.066 281.547 252.079 283.675 251.065C282.167 252.19 280.302 253.342 278.221 254.274Z" fill="#402259"/>
<path d="M304.629 175.02C304.229 176.269 303.501 177.59 302.427 178.97C302.821 177.717 303.56 176.405 304.629 175.02Z" fill="#68322B"/>
<path d="M255.179 253.238C256.217 253.166 257.434 253.346 258.825 253.784C257.786 253.859 256.572 253.675 255.179 253.238Z" fill="#402259"/>
<path d="M248.962 250.479C249.903 250.846 250.923 251.534 252.01 252.548C251.065 252.183 250.052 251.492 248.962 250.479Z" fill="#402259"/>
<path d="M288.385 246.992C288.786 246.052 289.522 245.058 290.585 244.004C290.181 244.942 289.45 245.94 288.385 246.992Z" fill="#402259"/>
<path d="M310.746 162.17C310.569 162.999 310.129 163.941 309.355 164.946C309.014 164.834 309.006 164.657 308.983 164.214C309.473 163.393 309.978 162.838 310.746 162.17Z" fill="#68322B"/>
<path d="M291.375 241.986C291.465 241.394 291.868 240.735 292.571 239.998C292.478 240.587 292.082 241.254 291.375 241.986Z" fill="#402259"/>
<path d="M306.643 171.006C306.515 171.594 306.076 172.247 305.317 172.949C305.442 172.356 305.887 171.713 306.643 171.006Z" fill="#68322B"/>
<path d="M368.186 113.152C368.579 113.28 368.951 113.736 369.375 114.492C369.007 114.354 368.586 113.918 368.186 113.152Z" fill="#896561"/>
<path d="M366.037 110.301C366.415 110.366 366.826 110.735 367.305 111.38C366.938 111.306 366.504 110.956 366.037 110.301Z" fill="#896561"/>
<path d="M372.633 119.908C372.832 120.2 372.67 120.487 372.209 120.856C371.997 120.988 371.786 120.565 371.801 120.33C371.996 120.046 372.176 119.998 372.633 119.908Z" fill="#E7B065"/>
<path d="M367.388 111.963C367.636 111.908 367.884 112.121 368.175 112.584C367.941 112.632 367.664 112.432 367.388 111.963Z" fill="#896561"/>
<path d="M317.977 153.589C316.942 154.617 315.903 155.302 314.564 156.045C307.548 145.815 300.069 136.194 290.071 128.333C294.253 130.521 299.217 132.334 302.823 135.632C308.114 140.47 312.434 146.37 317.488 151.846C317.864 152.331 317.918 152.788 317.977 153.589Z" fill="#655155"/>
<path d="M350.943 240.543C351.892 233.203 357.955 230.613 365.267 233.956C372.439 237.236 379.849 239.997 387.308 243.276C384.858 244.992 382.293 246.493 379.645 247.829C373.485 250.938 367.284 253.966 360.791 256.876C355.228 252.553 351.413 247.534 350.943 240.543Z" fill="#88BAC7"/>
<path d="M361.1 257.027C367.284 253.966 373.485 250.938 379.645 247.829C382.293 246.493 384.858 244.992 387.689 243.326C393.695 243.768 399.472 244.449 405.711 245.247C406.098 245.982 406.024 246.6 405.599 247.618C403.172 249.688 401.096 251.358 398.67 253.062C392.207 257.041 386.095 260.986 379.982 264.932C378.563 265.231 377.143 265.531 375.117 265.637C370.071 263.286 365.631 261.126 361.136 258.646C361.086 257.893 361.093 257.46 361.1 257.027Z" fill="#A7D8E0"/>
<path d="M341.643 256.047C341.645 255.19 341.648 254.332 341.71 252.85C342.022 251.461 342.275 250.698 342.527 249.935C349.412 256.228 356.296 262.521 363.31 269.119C361.217 269.417 358.996 269.411 356.202 268.959C350.968 264.358 346.305 260.202 341.643 256.047Z" fill="#E39B74"/>
<path d="M342.524 249.602C342.275 250.698 342.022 251.461 341.623 252.6C340.64 253.872 339.803 254.767 338.508 256.151C334.856 251.733 331.294 247.423 327.392 243.056C326.98 242.269 326.909 241.539 326.791 240.443C331.35 242.679 335.955 245.282 340.936 247.793C341.714 248.224 342.117 248.746 342.524 249.602Z" fill="#442E33"/>
<path d="M347.166 237.168C343.314 240.398 340.858 239.759 338.708 234.965C337.026 231.217 338.622 226.543 342.631 223.922C345.155 222.272 347.597 222.016 348.877 225.527C344.721 225.917 342.397 227.72 342.154 231.332C341.932 234.623 343.433 236.995 347.166 237.168Z" fill="#765487"/>
<path d="M347.142 237.134C343.433 236.995 341.932 234.623 342.154 231.332C342.397 227.72 344.721 225.917 348.781 225.918C349.182 225.881 349.134 225.948 349.128 226.287C349.602 227.079 350.082 227.531 350.561 227.982C349.933 230.882 349.304 233.781 348.262 236.703C347.578 236.86 347.309 236.995 347.04 237.129C347.04 237.129 347.118 237.101 347.142 237.134Z" fill="#9667B2"/>
<path d="M361.192 258.967C365.631 261.126 370.071 263.286 374.757 265.688C374.691 266.696 374.378 267.46 374.041 268.532C369.056 265.802 364.096 262.765 359.358 259.399C360.118 259.035 360.655 259.001 361.192 258.967Z" fill="#84B9C6"/>
<path d="M361.135 258.646C360.655 259.001 360.118 259.035 359.18 259.108C353.586 254.299 348.333 249.482 350.674 240.89C351.413 247.534 355.228 252.553 360.791 256.876C361.093 257.46 361.086 257.893 361.135 258.646Z" fill="#75A8B2"/>
<path d="M350.528 227.61C350.082 227.531 349.602 227.079 349.088 226.279C349.534 226.366 350.014 226.802 350.528 227.61Z" fill="#765487"/>
<path d="M365.958 269.542C365.821 269.704 365.603 269.676 365.093 269.497C365.159 269.348 365.519 269.35 365.958 269.542Z" fill="#E39B74"/>
<path d="M347.312 237.275C347.309 236.995 347.578 236.86 347.965 236.891C347.916 237.178 347.75 237.299 347.312 237.275Z" fill="#765487"/>
<path d="M300.665 248.672C303.624 241.87 306.41 235.398 309.624 227.932C310.452 229.39 311.777 230.714 311.937 232.165C313.067 242.444 313.958 252.748 314.944 263.24C310.436 264.912 300.097 262.121 298.289 257.369C297.455 255.176 299.664 251.826 300.665 248.672Z" fill="#F7D66D"/>
<path d="M319.938 262.184C318.909 258.775 318.01 255.742 317.112 252.708C317.391 252.588 317.671 252.467 317.951 252.347C321.198 255.852 324.445 259.356 327.771 262.946C325.538 264.167 322.846 265.099 319.938 262.184Z" fill="#F7D66D"/>
<path d="M318.084 227.278C318.306 227.186 318.655 227.399 319.205 227.871C319.008 227.948 318.61 227.765 318.084 227.278Z" fill="#61251F"/>
<path d="M341.584 256.463C346.305 260.202 350.968 264.358 355.836 268.788C346.312 268.313 342.085 264.764 341.584 256.463Z" fill="#E6AE88"/>
<path d="M399.021 253.029C401.096 251.358 403.172 249.688 405.574 247.932C405.294 250.655 404.687 253.463 404.035 256.636C403.99 257 404.001 257 403.693 257.152C402.586 258.892 401.786 260.479 400.987 262.065C400.874 262.35 400.695 262.585 399.855 262.885C396.073 263.694 392.889 264.388 388.742 265.291C392.81 260.438 395.915 256.733 399.021 253.029Z" fill="#6EA5B2"/>
<path d="M398.67 253.062C395.915 256.733 392.81 260.438 388.742 265.291C392.889 264.388 396.073 263.694 399.659 262.994C396.035 267.83 390.296 265.735 385.294 266.507C383.783 266.74 382.102 265.873 380.24 265.221C386.095 260.987 392.207 257.041 398.67 253.062Z" fill="#84B9C6"/>
<path d="M401.288 261.89C401.786 260.479 402.585 258.892 403.692 257.147C403.196 258.565 402.392 260.139 401.288 261.89Z" fill="#84B9C6"/>
<path d="M407.691 183.86C409.089 185.967 410.192 187.924 411.628 189.939C412.03 190.393 412.098 190.789 412.205 191.483C411.635 196.916 412.202 202.582 410.177 207.081C405.574 217.31 396.025 220.795 385.506 222.011C385.342 222.03 385.174 222.02 385.008 222.018C380.857 221.951 375.837 223.268 372.832 221.379C370.418 219.861 370.447 214.459 369.389 210.782C365.625 197.702 357.926 188.532 344.104 185.593C342.073 185.161 339.917 185.315 337.235 185.166C338.188 178.675 342.739 174.66 347.929 171.659C356.148 166.907 365.066 164.768 374.645 166.905C375.758 167.153 376.965 166.977 378.567 167C385.428 169.644 391.85 172.287 398.63 174.972C401.791 177.913 404.593 180.812 407.691 183.86ZM371.911 174.455C379.105 178.713 386.299 182.971 393.865 187.45C395.939 185.655 398.482 183.454 401.05 181.231C390.294 170.471 369.61 165.464 361.723 171.381C364.876 172.311 368.028 173.242 371.911 174.455Z" fill="#AA79D0"/>
<path d="M322.286 226.435C318.825 216.14 318.98 206.373 324.462 197.281C327.201 192.739 331.191 189.297 337.323 189.068C323.498 208.857 324.592 211.611 325.49 232.752C324.471 230.769 323.451 228.786 322.286 226.435Z" fill="#A275C6"/>
<path d="M372.113 131.923C371.933 131.815 371.919 131.64 372.026 131.229C372.262 131.187 372.4 131.37 372.479 131.577C372.501 131.636 372.351 131.761 372.113 131.923Z" fill="#E7B065"/>
<path d="M236.372 194.341C239.534 191.873 242.457 189.593 245.681 187.181C246.492 195.303 242.585 201.907 237.669 208.67C229.853 214.619 221.857 218.474 212.114 217.084C220.93 221.604 234.006 217.352 238.023 209.023C240.267 210.634 242.594 212.142 244.74 213.873C256.256 223.166 269.075 229.1 284.638 229.038C283.533 237.168 278.522 241.559 272.226 244.892C265.071 248.68 257.495 248.109 249.999 246.429C244.854 245.276 239.853 243.483 234.404 241.952C223.85 233.591 213.599 225.352 203.531 216.894C192.555 207.673 188.148 194.796 191.971 183.659C192.699 181.54 193.862 179.571 194.553 178.107C197.914 183.134 201.183 188.023 204.813 192.918C205.175 192.924 205.079 192.979 205.157 193.182C205.528 193.588 205.821 193.79 206.114 193.992C206.114 193.992 206.012 194.01 206.15 194.196C206.6 194.579 206.911 194.777 207.222 194.974C211.251 197.399 215.049 201.06 219.38 201.868C223.05 202.552 227.442 200.207 231.301 198.666C233.165 197.923 234.537 195.947 236.372 194.341Z" fill="#612E96"/>
<path d="M207.106 194.711C206.911 194.777 206.6 194.579 206.141 194.145C206.326 194.088 206.658 194.268 207.106 194.711Z" fill="#402259"/>
<path d="M206.037 193.719C205.821 193.79 205.528 193.588 205.123 193.139C205.327 193.077 205.643 193.261 206.037 193.719Z" fill="#402259"/>
<path d="M371.546 174.314C368.028 173.242 364.876 172.311 361.723 171.382C369.61 165.464 390.294 170.471 401.05 181.232C398.482 183.455 395.939 185.655 393.865 187.45C386.299 182.971 379.105 178.713 371.546 174.314Z" fill="#C096E7"/>
<path d="M238.011 209.011C234.006 217.352 220.93 221.604 212.114 217.084C221.857 218.474 229.853 214.619 237.628 209.019C237.975 208.976 237.999 208.999 238.011 209.011Z" fill="#46137A"/>
<path d="M179.855 121.523C179.103 121.009 178.427 120.166 177.751 119.323C178.242 119.056 178.733 118.788 179.223 118.521C179.459 119.412 179.695 120.303 179.855 121.523Z" fill="#D3FBFD"/>
<path d="M366 108.719C366.14 109.028 366.007 109.503 366.005 109.75C364.49 108.751 362.976 107.505 361.474 105.915C362.944 106.517 364.402 107.464 366 108.719Z" fill="#896561"/>
<path d="M131.056 33.2866C132.209 33.4503 133.377 33.9268 134.51 34.7085C134.312 35.0618 134.148 35.1101 133.984 35.1584C133.493 35.3294 133.003 35.5004 132.256 35.7878C131.69 35.136 131.38 34.3678 131.056 33.2866Z" fill="#DDF7F0"/>
<path d="M140.869 18.742C140.287 18.56 139.699 18.0591 139.098 17.2388C139.677 17.4206 140.271 17.9218 140.869 18.742Z" fill="#DDF7F0"/>
<path d="M188.809 151.683C189.33 152.054 189.613 152.568 189.954 153.523C189.469 153.941 188.926 153.918 187.979 153.845C187.908 153.139 188.24 152.483 188.809 151.683Z" fill="#4F4E53"/>
<path d="M130.61 25.9753C130.907 26.3899 130.931 26.8785 130.918 27.7336C130.7 27.4165 130.519 26.733 130.61 25.9753Z" fill="#DDF7F0"/>
<path d="M331.608 140.601C331.713 140.272 331.912 140.016 332.435 139.741C332.665 139.65 332.875 139.876 332.835 140.177C332.584 140.716 332.337 140.909 331.943 140.942C331.831 140.829 331.608 140.601 331.608 140.601Z" fill="#6E4D46"/>
<path d="M330.681 141.676C330.669 141.23 330.864 140.973 331.38 140.694C331.608 140.602 331.831 140.829 331.802 141.135C331.564 141.688 331.315 141.883 331.026 142.027C331.026 142.027 330.795 141.794 330.681 141.676Z" fill="#6E4D46"/>
<path d="M336.937 85.1085C337.036 85.0425 337.154 85.3305 337.154 85.4858C337.154 85.6411 336.863 85.5147 336.863 85.5147C336.863 85.5147 336.837 85.1745 336.937 85.1085Z" fill="#896561"/>
<path d="M357.396 101.463C357.15 101.534 356.832 101.359 356.527 100.893C356.801 100.807 357.063 101.012 357.396 101.463Z" fill="#896561"/>
<path d="M359.257 103.31C359.028 103.413 358.692 103.275 358.303 102.852C358.551 102.735 358.851 102.902 359.257 103.31Z" fill="#896561"/>
<path d="M360.293 104.311C360.056 104.41 359.751 104.29 359.451 103.899C359.788 103.657 360.044 103.811 360.293 104.311Z" fill="#896561"/>
<path d="M361.289 105.256C361.059 105.364 360.753 105.262 360.451 104.893C360.776 104.643 361.028 104.784 361.289 105.256Z" fill="#896561"/>
<path d="M478.353 180.222C477.36 182.924 476.917 186.028 475.285 188.262C465.249 201.996 451.111 210.696 436.59 218.781C430.09 222.4 423.291 225.482 416.023 228.845C415.246 228.307 415.072 227.734 415.003 226.708C415.555 220.235 416.003 214.214 416.787 208.124C437.887 199.567 458.005 189.949 475.331 175.095C476.528 176.902 477.44 178.562 478.353 180.222Z" fill="#47167B"/>
<path d="M414.899 227.16C415.072 227.734 415.246 228.307 415.701 229.012C414.827 234.339 413.67 239.534 411.78 244.93C409.422 245.209 407.797 245.287 405.711 245.247C399.472 244.449 393.694 243.768 387.536 243.036C379.849 239.997 372.439 237.236 365.266 233.956C357.955 230.613 351.892 233.203 350.674 240.89C348.333 249.482 353.586 254.3 358.957 259.437C364.096 262.765 369.056 265.802 374.347 268.9C375.114 269.057 375.551 269.154 375.935 269.533C375.263 270.522 374.645 271.229 374.026 271.936C373.122 271.888 372.219 271.84 370.633 271.515C368.647 270.736 367.343 270.233 365.958 269.542C365.519 269.35 365.159 269.348 364.573 269.373C364.045 269.429 363.742 269.437 363.31 269.119C356.296 262.521 349.412 256.228 342.524 249.602C342.117 248.746 341.714 248.224 341.293 247.338C339.563 242.51 337.28 238.174 336.255 233.559C334.049 223.626 341.216 215.234 350.28 217.065C353.335 217.682 356.27 219.789 358.838 221.763C372.05 231.914 387.044 237.763 403.288 240.759C407.798 241.591 410.495 240.1 411.571 235.364C412.216 232.524 413.759 229.888 414.899 227.16ZM347.584 237.42C347.75 237.299 347.916 237.178 348.676 236.68C349.304 233.781 349.933 230.882 350.494 227.238C350.014 226.802 349.534 226.366 349.134 225.947C349.134 225.947 349.182 225.881 349.373 225.099C347.597 222.016 345.155 222.272 342.631 223.922C338.622 226.543 337.026 231.217 338.708 234.965C340.858 239.759 343.314 240.399 347.118 237.1C347.118 237.1 347.04 237.129 347.584 237.42Z" fill="#F5F1DE"/>
<path d="M478.708 180.084C477.44 178.562 476.528 176.902 475.237 174.772C470.229 170.233 465.602 166.164 460.974 162.095C465.61 160.062 468.006 156.153 469.219 151.557C470.392 147.113 473.11 144.671 477.527 144.39C482.719 144.059 487.934 144.112 493.563 144.446C493.317 148.615 492.649 152.336 491.838 156.376C492.141 158.249 492.228 160.823 493.112 161.134C494.688 161.688 496.936 161.29 498.558 160.542C501.194 159.326 503.551 157.507 506.026 155.943C509.128 158.457 508.69 161.228 506.447 163.956C505.32 165.328 503.895 166.454 501.993 167.899C500.918 168.731 500.453 169.356 499.989 169.98C499.989 169.98 499.992 169.993 499.995 169.993C498.826 170.158 497.655 170.322 496.241 170.746C489.2 171.802 483.794 175.235 478.708 180.084Z" fill="#FBF8DE"/>
<path d="M292.076 253.994C293.914 251.883 295.864 249.857 297.572 247.644C303.819 239.547 305.029 230.131 304.71 220.276C304.639 218.092 305.309 215.883 306.125 213.576C310.412 217.992 314.212 222.518 318.015 227.012C318.018 226.981 317.956 226.973 318.085 227.278C318.61 227.765 319.008 227.948 319.54 228.418C322.031 232.495 324.388 236.286 326.791 240.443C326.908 241.539 326.98 242.269 327.013 243.384C329.334 251.908 332.149 259.823 337.987 266.258C326.205 270.167 314.408 269.692 302.113 265.937C297.923 262.094 291.809 260.692 292.076 253.994ZM300.493 249.001C299.664 251.826 297.455 255.176 298.289 257.369C300.097 262.121 310.436 264.911 314.944 263.24C313.958 252.748 313.067 242.444 311.936 232.165C311.777 230.713 310.452 229.389 309.624 227.932C306.41 235.398 303.624 241.87 300.493 249.001ZM320.068 262.558C322.846 265.099 325.538 264.167 327.771 262.947C324.445 259.356 321.198 255.852 317.951 252.347C317.671 252.467 317.391 252.588 317.112 252.708C318.01 255.742 318.909 258.776 320.068 262.558Z" fill="#EAB160"/>
<path d="M291.675 254.001C291.809 260.692 297.923 262.094 301.709 265.764C280.023 269.103 259.917 263.903 240.558 253.486C246.408 254.509 252.523 255.726 258.591 257.141C269.184 259.611 279.435 259.027 289.309 254.172C289.858 253.902 290.614 254.053 291.675 254.001Z" fill="#422B5B"/>
<path d="M338.296 266.483C332.149 259.824 329.334 251.908 327.353 243.441C331.293 247.423 334.856 251.733 338.508 256.151C339.803 254.767 340.64 253.872 341.564 253.226C341.648 254.332 341.645 255.19 341.584 256.463C342.085 264.764 346.312 268.313 356.408 269.234C358.996 269.411 361.217 269.417 363.439 269.423C363.742 269.437 364.045 269.429 364.866 269.524C365.603 269.676 365.821 269.704 366.038 269.731C367.343 270.234 368.647 270.736 370.188 271.433C364.812 272.014 359.058 273.334 353.626 272.518C348.445 271.739 343.598 268.734 338.296 266.483Z" fill="#56413D"/>
<path d="M375.988 269.251C375.551 269.154 375.114 269.057 374.372 268.593C374.378 267.46 374.692 266.696 375.364 265.881C377.143 265.531 378.563 265.232 380.24 265.221C382.102 265.873 383.783 266.74 385.294 266.507C390.296 265.735 396.035 267.83 400.256 262.879C400.695 262.585 400.874 262.35 401.288 261.89C402.392 260.139 403.196 258.565 404.001 256.995C404.001 257 403.99 257 404.343 256.961C405.798 255.607 406.992 254.358 407.979 252.963C409.159 251.296 410.161 249.503 411.24 247.765C408.278 257.984 404.054 267.164 391.857 270.573C386.07 270.255 381.029 269.753 375.988 269.251Z" fill="#75A8B2"/>
<path d="M138.995 163.993C135.934 165.58 132.792 167.032 129.835 168.794C126.928 170.526 124.322 170.63 121.439 168.128C109.989 160.148 105.714 150.792 109.409 136.463C117.629 104.589 124.171 72.2824 131.384 40.1495C131.638 39.0196 131.76 37.8602 132.228 36.193C133.003 35.5004 133.493 35.3294 133.992 35.5758C134.003 37.6698 134.005 39.3465 134.008 41.0232C133.013 47.335 131.844 53.6251 131.06 59.963C129.317 74.0703 127.703 88.1944 126.157 102.325C124.701 115.639 123.134 128.952 122.23 142.307C122.019 145.41 123.493 149.421 125.605 151.711C129.249 155.662 134 158.591 138.64 162.319C138.994 163.124 138.994 163.558 138.995 163.993Z" fill="#46177C"/>
<path d="M308.968 163.948C304.335 167.789 299.691 171.616 295.08 175.482C294.218 176.206 293.486 177.086 292.078 177.947C291.275 177.993 291.086 177.987 290.887 177.585C289.872 173.016 289.049 168.788 287.832 164.677C282.957 148.202 276.536 132.573 262.984 121.022C266.302 121.045 269.619 121.068 273.499 121.496C275.88 123.018 277.656 124.214 279.525 125.24C293.841 133.104 304.711 144.289 312.074 159.225C311.715 160.406 311.362 161.232 310.746 162.17C309.978 162.837 309.473 163.393 308.968 163.948Z" fill="#655155"/>
<path d="M179.622 164.003C177.566 169.749 175.148 175.539 172.759 181.339C166.817 195.762 170.174 208.63 180.868 219.045C188.356 226.338 197.364 232.069 205.834 238.817C200.937 237.449 195.952 235.578 190.846 234.132C186.553 232.916 182.121 232.193 177.395 231.08C175.997 229.769 175.15 228.287 173.873 227.556C170.032 225.357 165.632 223.949 162.214 221.26C159.843 219.394 157.523 216.015 157.308 213.151C156.828 206.775 157.683 200.297 158.014 193.441C161.796 183.576 166.208 174.52 173.983 167.619C175.56 166.219 177.5 165.229 179.622 164.003Z" fill="#3E225A"/>
<path d="M351.945 95.0161C351.945 95.0161 352.197 95.2237 352.191 95.7451C353.601 97.6648 355.018 99.0631 356.435 100.461C356.435 100.461 356.473 100.542 356.494 100.863C356.832 101.359 357.15 101.534 357.468 101.708C357.726 101.807 357.932 101.972 358.22 102.67C358.692 103.275 359.028 103.413 359.363 103.551C359.363 103.551 359.393 103.611 359.419 103.89C359.751 104.29 360.057 104.41 360.362 104.531C360.362 104.531 360.392 104.595 360.42 104.878C360.753 105.262 361.059 105.364 361.365 105.465C361.365 105.465 361.413 105.533 361.437 105.896C362.976 107.505 364.49 108.751 366.002 109.998C366 110 366.004 109.997 366.037 110.301C366.504 110.956 366.938 111.306 367.225 111.73C367.077 111.804 367.388 111.695 367.388 111.963C367.664 112.432 367.941 112.632 368.117 112.919C368.017 113.006 368.208 112.823 368.186 113.152C368.586 113.918 369.007 114.354 369.636 115.042C370.501 116.894 371.159 118.494 371.801 120.329C371.786 120.565 371.997 120.987 372.021 121.404C372.046 123.205 372.046 124.59 371.711 126.127C368.572 126.474 364.972 127.864 363.119 126.63C358.174 123.337 353.693 119.188 349.587 114.849C346.888 111.997 345.159 108.225 342.932 104.497C338.535 92.4052 337.564 80.2196 337.956 67.5409C338.416 66.399 338.806 65.5723 339.735 63.6057C340.351 66.6239 340.56 68.5025 341.128 70.2656C342.616 74.8827 344.259 79.4493 345.841 84.036C345.996 84.3395 346.151 84.6431 346.262 85.5875C348.127 89.1576 350.036 92.0868 351.945 95.0161Z" fill="#894033"/>
<path d="M21.1801 31.0033C20.2341 30.9292 19.4804 30.7182 18.4682 30.3611C13.9147 23.6133 9.51889 17.0741 5.37489 10.3789C3.74988 7.75352 2.68913 4.77889 0.713867 0.55835C3.57948 1.90721 5.49566 2.47913 7.02268 3.58731C12.4953 7.55886 18.2008 11.3197 23.1297 15.901C28.6255 21.0093 28.3128 23.8774 22.9922 30.1096C22.2425 30.5051 21.8074 30.6858 21.1801 31.0033Z" fill="#F3F2E0"/>
<path d="M130.882 25.9012C131.27 20.9086 131.657 15.9161 132.381 10.4157C135.207 6.77214 136.167 10.8894 137.969 11.0167C138.329 12.7307 138.689 14.4448 139.08 16.8585C139.699 18.059 140.287 18.5599 140.874 19.0609C140.904 20.1138 140.934 21.1667 140.697 22.9039C140.343 25.7669 140.255 27.9455 140.167 30.1241C139.315 31.648 138.463 33.172 136.979 34.8818C136.128 35.0997 135.907 35.1318 135.488 35.1391C135.289 35.1143 134.969 34.8744 134.757 34.6389C133.377 33.9268 132.209 33.4503 131.042 32.9737C130.995 31.6199 130.948 30.2661 130.928 28.1397C130.931 26.8785 130.906 26.3898 130.882 25.9012Z" fill="#F5F1DE"/>
<path d="M262.665 120.837C276.536 132.573 282.956 148.202 287.832 164.677C289.049 168.788 289.872 173.016 290.57 177.59C289.843 177.99 289.42 177.99 288.997 177.99C288.198 176.134 287.398 174.277 286.466 172.11C282.552 152.963 275.969 135.604 260.597 122.856C259.979 122.343 259.569 121.581 258.972 120.624C260.036 120.426 261.191 120.539 262.665 120.837Z" fill="#B1938E"/>
<path d="M256.503 120.955C252.786 121.611 248.67 122.45 244.512 122.866C224.936 124.825 208.84 133.466 195.582 147.823C194.127 149.399 191.965 150.322 189.818 151.296C206.938 130.482 228.921 119.982 256.503 120.955Z" fill="#4F4E53"/>
<path d="M312.081 158.87C304.711 144.289 293.841 133.104 279.525 125.24C277.656 124.214 275.88 123.018 273.938 121.591C276.802 121.95 279.79 122.618 283.045 123.939C285.507 125.743 287.701 126.893 290.071 128.333C300.069 136.194 307.548 145.815 314.266 156.464C313.538 157.506 312.81 158.188 312.081 158.87Z" fill="#B1938E"/>
<path d="M337.888 67.8562C337.564 80.2196 338.535 92.4053 342.918 104.927C343.508 108.31 344.022 110.902 344.593 113.48C347.015 124.435 342.414 135.097 332.979 139.99C332.875 139.876 332.665 139.65 332.665 139.65C334.74 137.525 336.891 135.469 338.875 133.262C342.877 128.809 344.552 123.57 343.407 117.655C341.397 107.27 339.234 96.9159 337.145 85.9397C337.154 85.3305 337.036 85.0426 337.036 85.0426C336.919 79.6728 336.802 74.3031 337.05 68.4468C337.414 67.9602 337.888 67.8562 337.888 67.8562Z" fill="#6E4D46"/>
<path d="M135.687 35.164C135.907 35.1319 136.128 35.0998 136.681 35.0439C136.999 70.4167 136.982 105.813 136.949 141.691C136.931 142.172 136.525 142.067 136.32 141.544C136.06 129.703 135.997 118.384 135.953 107.065C135.859 83.098 135.775 59.131 135.687 35.164Z" fill="#D4ECFD"/>
<path d="M289.896 128.044C287.701 126.893 285.506 125.743 283.159 124.292C288.88 126.361 295.743 127.536 300.388 131.387C306.997 136.867 311.977 144.313 317.746 151.34C317.839 151.76 317.809 151.874 317.488 151.845C312.434 146.369 308.114 140.47 302.823 135.632C299.217 132.334 294.253 130.521 289.896 128.044Z" fill="#4F4E53"/>
<path d="M337.956 67.5409C337.888 67.8562 337.415 67.9602 337.175 67.9942C338.202 63.1847 339.469 58.3411 340.737 53.4976C341.349 53.5643 341.961 53.631 342.574 53.6977C341.295 63.872 342.298 73.734 345.844 83.6418C344.259 79.4493 342.615 74.8827 341.128 70.2657C340.56 68.5026 340.351 66.6239 339.735 63.6057C338.806 65.5723 338.415 66.399 337.956 67.5409Z" fill="#896561"/>
<path d="M317.809 151.874C317.809 151.874 317.839 151.76 317.841 151.701C320.41 149.634 322.999 147.652 325.54 145.61C327.049 144.397 328.483 143.09 330.373 141.809C330.795 141.793 331.026 142.027 330.855 142.311C326.45 146.374 322.215 150.153 317.977 153.589C317.918 152.788 317.864 152.331 317.809 151.874Z" fill="#6E4D46"/>
<path d="M137.936 10.6543C136.167 10.8893 135.208 6.77203 132.41 9.98136C132.807 8.35232 133.511 6.6498 134.216 4.94727C134.748 5.01278 135.28 5.0783 135.813 5.14382C136.51 6.85989 137.206 8.57595 137.936 10.6543Z" fill="#DDF7F0"/>
<path d="M351.89 94.6697C350.036 92.0869 348.127 89.1577 346.301 85.8418C348.201 88.4112 350.018 91.3673 351.89 94.6697Z" fill="#896561"/>
<path d="M140.508 29.9893C140.255 27.9455 140.343 25.7669 140.695 23.2991C140.922 25.2914 140.885 27.5729 140.508 29.9893Z" fill="#DDF7F0"/>
<path d="M356.317 100.165C355.018 99.0631 353.601 97.6648 352.24 95.9006C353.597 96.9791 354.898 98.4235 356.317 100.165Z" fill="#896561"/>
<path d="M136.932 142.172C139.524 143.85 141.922 146.039 144.745 147.11C152.985 150.235 161.247 153.559 169.796 155.513C174.578 156.606 179.945 155.138 185.464 155.238C184.241 158.085 182.602 160.518 180.742 163.064C180.244 163.384 180.059 163.652 179.985 163.982C180.007 163.981 179.971 163.955 179.622 164.003C177.501 165.229 175.56 166.219 173.983 167.619C166.208 174.521 161.796 183.576 157.602 193.008C150.914 192.289 144.548 192.101 138.425 190.782C116.24 186.001 94.0292 181.257 72.0668 175.577C65.2183 173.806 57.8193 171.496 54.7072 162.954C44.4602 134.827 35.5224 106.317 29.1213 77.0861C25.7969 61.9051 23.6609 46.464 21.1802 31.0035C21.8075 30.686 22.2426 30.5054 22.6778 30.3247C38.1558 71.5305 53.6769 112.72 69.0568 153.963C70.9524 159.046 74.1041 161.73 79.48 162.483C93.2569 164.414 106.997 166.608 121.26 168.493C124.322 170.631 126.928 170.526 129.835 168.794C132.792 167.032 135.934 165.581 139.369 163.949C147.439 162.156 155.136 160.406 162.853 158.652C154.559 156.507 146.769 159.255 138.635 161.994C134.001 158.591 129.249 155.662 125.606 151.712C123.494 149.422 122.02 145.411 122.23 142.308C123.135 128.952 124.701 115.639 126.157 102.325C127.703 88.1945 129.317 74.0704 131.061 59.9631C131.844 53.6252 133.014 47.3351 134.01 41.4893C134.014 73.5254 133.982 105.096 134.107 136.665C134.114 138.43 135.42 140.19 136.324 142.01C136.525 142.067 136.932 142.172 136.932 142.172Z" fill="#612F97"/>
<path d="M20.988 31.1402C23.6608 46.4638 25.7968 61.905 29.1212 77.0859C35.5224 106.317 44.4601 134.827 54.7072 162.954C57.8192 171.496 65.2183 173.806 72.0667 175.577C94.0291 181.257 116.24 186.001 138.425 190.781C144.548 192.101 150.914 192.289 157.581 193.429C157.683 200.298 156.828 206.775 157.308 213.151C157.523 216.015 159.843 219.394 162.215 221.26C165.632 223.949 170.032 225.357 173.873 227.556C175.15 228.287 175.997 229.769 177.041 230.908C163.628 227.75 150.012 225.267 136.845 221.296C107.68 212.5 79.353 201.397 51.7186 188.519C46.2953 185.992 42.9071 182.651 41.7217 176.641C36.254 148.921 30.0917 121.329 25.1447 93.5189C22.0038 75.862 20.5185 57.9084 18.3877 40.0763C18.0339 37.116 18.1779 34.0962 18.4093 30.8056C19.4804 30.7183 20.2342 30.9293 20.988 31.1402Z" fill="#450C79"/>
<path d="M180.963 162.951C182.602 160.518 184.241 158.085 185.908 155.308C186.327 154.641 186.719 154.318 187.747 153.944C188.926 153.918 189.469 153.941 189.919 154.244C190.401 154.903 191.223 155.749 191.516 155.594C204.933 148.497 218.969 145.798 234.19 147.876C252.185 150.332 268.813 155.355 282.077 168.535C283.335 169.785 284.907 170.719 286.466 172.11C287.398 174.277 288.198 176.134 288.971 178.42C290.259 188.92 291.573 198.99 292.557 208.978C286.639 202.93 281.757 195.997 275.272 191.257C268.096 186.012 259.454 182.774 251.626 178.319C251.425 172.024 249.148 170.633 240.858 171.142C240.131 170.248 239.589 169.611 239.096 168.648C239.103 167.884 239.06 167.447 239.257 166.752C240.236 163.104 239.368 160.429 235.855 158.517C232.474 155.493 229.243 156.59 225.773 157.923C225.541 157.842 225.051 157.885 224.934 157.546C222.206 154.661 217.462 154.938 215.281 157.634C214.374 158.755 213.149 159.619 211.895 160.268C209.219 160.92 206.026 161.26 204.371 163.034C201.747 165.847 200.153 169.62 197.743 173.036C192.169 175.261 186.627 176.879 181.907 179.817C178.993 181.63 175.787 185.29 175.456 188.412C174.924 193.442 175.668 199.128 177.63 203.798C182.333 214.994 191.38 222.788 201.135 229.531C214.839 239.004 229.821 245.868 246.365 250.015C247.445 250.073 248.165 250.115 248.962 250.479C250.053 251.492 251.065 252.183 252.443 252.893C253.539 252.938 254.269 252.962 255.179 253.238C256.572 253.675 257.786 253.859 259.376 254.09C261.503 254.408 263.253 254.68 265.281 255.235C268.373 255.331 271.186 255.144 274.342 254.926C275.792 254.613 276.898 254.333 278.221 254.274C280.302 253.342 282.167 252.19 284.348 250.97C285.793 249.616 286.922 248.331 288.385 246.992C289.45 245.94 290.181 244.942 290.936 243.628C290.994 242.893 291.029 242.473 291.375 241.986C292.082 241.254 292.478 240.587 292.892 239.556C292.937 238.462 292.963 237.733 293.287 236.757C294.052 234.468 295.016 232.395 294.897 230.386C294.492 223.515 293.707 216.666 293.451 209.748C294.084 206.258 294.76 202.796 294.494 199.408C293.934 192.252 292.881 185.136 292.362 177.948C293.486 177.086 294.218 176.206 295.081 175.482C299.692 171.616 304.335 167.789 308.983 164.214C309.006 164.657 309.014 164.834 308.76 165.241C307.984 167.295 307.469 169.118 306.643 171.006C305.887 171.713 305.442 172.356 304.99 173.324C304.974 174.082 304.966 174.515 304.629 175.02C303.561 176.405 302.821 177.716 302.067 179.425C302.037 180.882 302.024 181.941 301.735 183.273C299.788 189.424 299.146 195.269 302.03 201.379C303.381 205.541 304.728 209.323 305.857 213.396C305.309 215.883 304.639 218.092 304.71 220.276C305.029 230.131 303.82 239.547 297.572 247.644C295.865 249.857 293.914 251.883 291.675 254.001C290.615 254.053 289.859 253.902 289.31 254.172C279.435 259.027 269.184 259.611 258.591 257.141C252.523 255.726 246.408 254.509 240.315 253.203C239.627 253.039 238.939 252.875 238.056 252.315C237.577 251.886 237.294 251.853 237.011 251.82C234.971 251.072 232.93 250.324 230.526 249.512C222.266 246.17 214.37 242.892 206.084 239.056C197.364 232.069 188.356 226.338 180.868 219.045C170.174 208.63 166.817 195.763 172.759 181.339C175.148 175.539 177.566 169.749 179.971 163.955C179.971 163.955 180.007 163.981 180.211 163.875C180.598 163.497 180.781 163.224 180.963 162.951Z" fill="#4E383D"/>
<path d="M286.334 171.799C284.907 170.719 283.335 169.785 282.077 168.535C268.813 155.355 252.185 150.332 234.19 147.875C218.969 145.798 204.933 148.497 191.515 155.594C191.223 155.749 190.401 154.903 189.861 153.803C189.613 152.568 189.33 152.053 189.046 151.539C189.046 151.539 189.173 151.197 189.652 151.372C191.965 150.322 194.127 149.399 195.582 147.823C208.84 133.466 224.936 124.825 244.512 122.866C248.67 122.449 252.786 121.611 256.921 120.968C257.391 120.736 257.862 120.504 258.697 120.604C259.569 121.581 259.979 122.343 260.597 122.856C275.97 135.604 282.552 152.963 286.334 171.799Z" fill="#635155"/>
</svg>
