<svg width="284" height="54" viewBox="0 0 284 54" fill="none" xmlns="http://www.w3.org/2000/svg">
<path d="M271.886 7.48972H276.516V7.87021C276.334 7.84017 276.193 7.83016 276.082 7.83016H274.529V13.8279C274.529 13.9281 274.539 14.0282 274.569 14.1383H273.883C273.903 14.0282 273.913 13.9281 273.913 13.8279V7.82014H272.31C272.179 7.82014 272.037 7.83016 271.886 7.8602V7.48972Z" fill="white"/>
<path d="M277.928 8.39088L276.99 13.858C276.99 13.878 276.99 13.908 276.99 13.9481V13.9781C276.99 14.0182 276.99 14.0682 276.99 14.1283H276.657C276.677 14.0382 276.697 13.9381 276.728 13.8279L277.736 7.76007C277.736 7.75005 277.736 7.74004 277.736 7.73003L277.726 7.48972H278.311C278.331 7.60987 278.341 7.67996 278.352 7.71L280.359 13.4775L282.396 7.67996C282.406 7.6299 282.416 7.56982 282.416 7.48972H283.022C283.022 7.51975 283.022 7.54979 283.022 7.55981C283.022 7.6299 283.022 7.66995 283.022 7.67996L283.95 13.858C283.97 13.9581 283.99 14.0482 284 14.1283H283.334C283.355 14.0682 283.355 14.0182 283.355 13.9781C283.355 13.9381 283.355 13.908 283.355 13.878L282.477 8.22066L280.52 13.848C280.49 13.9481 280.47 14.0382 280.47 14.1183H279.905C279.905 14.0883 279.905 14.0682 279.905 14.0582C279.905 14.0182 279.895 13.9581 279.875 13.898L277.928 8.39088Z" fill="white"/>
<path fill-rule="evenodd" clip-rule="evenodd" d="M111.669 0C111.69 0 111.72 0 111.74 0C111.74 2.17282 111.74 4.34563 111.74 6.51845C111.74 21.8683 111.73 37.2182 111.73 52.5581C111.73 52.6883 111.73 52.8285 111.73 53.0187C111.538 52.9186 111.407 52.8585 111.286 52.7884C107.322 50.5756 103.368 48.3627 99.4142 46.1398C99.2024 46.0297 99.0309 46.0096 98.809 46.0897C91.6071 48.6831 84.4153 51.2665 77.2134 53.8498C77.0924 53.8899 76.9814 53.9299 76.7898 54C82.63 43.957 88.4197 33.9941 94.2095 24.0111C96.1562 25.1326 98.0626 26.214 99.979 27.3154C97.2153 32.0816 94.4717 36.8077 91.6878 41.5939C91.8694 41.5338 91.9803 41.5138 92.0913 41.4738C94.5222 40.6026 96.953 39.7315 99.3738 38.8504C99.626 38.7602 99.8176 38.7703 100.05 38.9004C101.593 39.7816 103.146 40.6327 104.69 41.5038C104.8 41.5639 104.911 41.6139 105.043 41.684C105.043 31.7812 105.043 21.9184 105.043 12.0156C96.7916 17.1823 88.5912 22.3189 80.3504 27.4856C81.8533 28.3467 83.326 29.1878 84.8188 30.049C83.6992 31.9714 82.5997 33.8639 81.4902 35.7764C81.3591 35.7063 81.2784 35.6662 81.1977 35.6162C76.7595 33.0829 72.3214 30.5296 67.8833 27.9963C67.7622 27.9162 67.6009 27.8761 67.4697 27.8161C67.4697 27.786 67.4697 27.766 67.4697 27.746C67.5807 27.6759 67.6916 27.6058 67.8026 27.5357C81.8634 18.7143 95.9242 9.91285 109.985 1.09141C110.55 0.740961 111.115 0.360467 111.669 0Z" fill="white"/>
<path d="M28.2426 51.7471L8.846 30.86V51.7471H0V5.83755H8.846V29.1578L27.2239 5.89763H38.0872L19.0739 29.5984L39.923 51.7471H28.2426Z" fill="white"/>
<path d="M77.274 43.967L72.6644 51.7471H43.988V5.83755H52.834V43.967H77.274Z" fill="white"/>
<path d="M116.562 45.7193L121.363 38.7002C123.673 40.2922 126.073 41.654 128.534 42.8055C130.996 43.957 133.578 44.5277 136.271 44.5277C137.703 44.5277 138.964 44.3575 140.063 43.997C141.163 43.6466 142.091 43.176 142.847 42.6152C143.604 42.0545 144.169 41.4037 144.552 40.6727C144.925 39.9418 145.117 39.2208 145.117 38.5099C145.117 37.5887 144.834 36.8077 144.259 36.1569C143.685 35.516 142.938 34.9753 141.98 34.5648C141.032 34.1443 139.922 33.7938 138.641 33.4934C137.35 33.203 136.019 32.9227 134.627 32.6824C133.699 32.5121 132.63 32.3119 131.409 32.0816C130.189 31.8513 128.918 31.5409 127.617 31.1404C126.315 30.7398 125.024 30.2192 123.763 29.5683C122.503 28.9275 121.363 28.1064 120.344 27.1252C119.335 26.1439 118.518 24.9724 117.913 23.6106C117.308 22.2488 116.995 20.6568 116.995 18.8144C116.995 16.1409 117.54 13.908 118.639 12.1357C119.729 10.3534 121.141 8.96161 122.835 7.93028C124.54 6.90895 126.436 6.18802 128.524 5.76747C130.612 5.34693 132.619 5.14667 134.556 5.14667C136.493 5.14667 138.218 5.26682 139.741 5.51715C141.254 5.76747 142.666 6.13795 143.967 6.61858C145.268 7.0992 146.549 7.70999 147.79 8.44094C149.03 9.17189 150.372 10.043 151.804 11.0443L146.872 17.9433C144.683 16.4413 142.575 15.2898 140.558 14.4988C138.54 13.6978 136.412 13.3072 134.183 13.3072C133.426 13.3072 132.559 13.3974 131.591 13.5876C130.622 13.7779 129.704 14.0782 128.847 14.4988C127.99 14.9093 127.263 15.45 126.699 16.0909C126.134 16.7417 125.841 17.5327 125.841 18.4439C125.841 19.3651 126.174 20.1361 126.85 20.7669C127.516 21.3877 128.383 21.9184 129.442 22.3289C130.491 22.7495 131.651 23.0999 132.912 23.4003C134.173 23.6907 135.393 23.9811 136.573 24.2715C137.461 24.4817 138.5 24.692 139.7 24.9023C140.901 25.1126 142.151 25.4029 143.432 25.7734C144.713 26.1539 145.994 26.6545 147.255 27.2754C148.516 27.9062 149.646 28.7072 150.634 29.6885C151.623 30.6798 152.42 31.8813 153.035 33.3232C153.64 34.7651 153.953 36.5173 153.953 38.56C153.953 40.9431 153.529 43.0158 152.692 44.768C151.855 46.5303 150.654 47.9722 149.091 49.1237C147.528 50.2752 145.682 51.1363 143.533 51.727C141.385 52.3178 139.004 52.6082 136.392 52.6082C133.991 52.6082 131.873 52.428 130.037 52.0775C128.202 51.717 126.537 51.2464 125.024 50.6356C123.511 50.0248 122.069 49.3039 120.717 48.4728C119.376 47.6518 117.994 46.7306 116.562 45.7193Z" fill="white"/>
<path d="M217.378 29.6584C218.82 29.7385 220.434 29.7686 222.239 29.7686C224.115 29.7285 225.77 28.9876 227.202 27.5557C228.644 26.0438 229.371 24.1413 229.371 21.8683C229.371 19.7156 228.634 17.9032 227.141 16.4313C225.608 14.9594 223.783 14.2184 221.664 14.2184H213.06L212.99 51.9674H203.821L203.882 5.81754H221.2C223.621 5.81754 225.87 6.21805 227.958 7.01909C229.996 7.77007 231.63 8.77136 232.861 9.99295C234.091 11.1745 235.13 12.5062 235.977 13.9781C236.784 15.46 237.359 16.8418 237.692 18.1535C238.035 19.4552 238.196 20.6568 238.196 21.7582C238.196 24.4617 237.521 27.1252 236.159 29.7786C234.797 32.392 232.911 34.3946 230.49 35.7864L242.977 52.0375H228.967L217.378 37.2483" fill="white"/>
<path d="M237.934 45.4088L234.525 52.0274H243.008L237.934 45.4088Z" fill="white"/>
<path d="M259.227 5.81754H258.339L240.133 41.1433L245.872 48.633L247.759 44.768H269.737L273.369 52.0375H283.052L259.227 5.81754ZM252.096 37.048L258.783 23.0699L265.41 37.048H252.096Z" fill="white"/>
<path d="M199.454 5.96774V52.2477H190.537V33.8539H167.539V52.2577H158.623V5.96774H167.539V26.0137H190.527V5.96774H199.454Z" fill="white"/>
</svg>
