<svg xmlns="http://www.w3.org/2000/svg" viewBox="0 0 80 80">
    <path style="line-height:normal;text-indent:0;text-align:start;text-decoration-line:none;text-decoration-style:solid;text-decoration-color:#000;text-transform:none;block-progression:tb;isolation:auto;mix-blend-mode:normal" d="M 9 13 C 6.8026661 13 5 14.802666 5 17 L 5 31 L 6 31 C 9.325562 31 12 33.674438 12 37 C 12 40.325562 9.325562 43 6 43 L 5 43 L 5 57 C 5 58.929349 6.390363 60.552233 8.2167969 60.919922 L 8.2070312 60.980469 L 64.310547 70.939453 C 66.474044 71.324134 68.56397 69.86371 68.947266 67.699219 L 70.136719 61 L 71 61 C 73.197334 61 75 59.197334 75 57 L 75 43 L 74 43 C 70.674438 43 68 40.325562 68 37 C 68 33.674438 70.674438 31 74 31 L 75 31 L 75 17 C 75 14.802666 73.197334 13 71 13 L 9 13 z M 9 15 L 21 15 A 1 1 0 0 0 22 16 A 1 1 0 0 0 23 15 L 71 15 C 72.116666 15 73 15.883334 73 17 L 73 29.203125 C 69.084606 29.718014 66 32.947865 66 37 C 66 41.052135 69.084606 44.281986 73 44.796875 L 73 57 C 73 58.116666 72.116666 59 71 59 L 23 59 A 1 1 0 0 0 22 58 A 1 1 0 0 0 21 59 L 9 59 C 7.8833339 59 7 58.116666 7 57 L 7 44.796875 C 10.915394 44.281986 14 41.052135 14 37 C 14 32.947865 10.915394 29.718014 7 29.203125 L 7 17 C 7 15.883334 7.8833339 15 9 15 z M 22 18 A 1 1 0 0 0 21 19 A 1 1 0 0 0 22 20 A 1 1 0 0 0 23 19 A 1 1 0 0 0 22 18 z M 22 22 A 1 1 0 0 0 21 23 A 1 1 0 0 0 22 24 A 1 1 0 0 0 23 23 A 1 1 0 0 0 22 22 z M 22 26 A 1 1 0 0 0 21 27 A 1 1 0 0 0 22 28 A 1 1 0 0 0 23 27 A 1 1 0 0 0 22 26 z M 22 30 A 1 1 0 0 0 21 31 A 1 1 0 0 0 22 32 A 1 1 0 0 0 23 31 A 1 1 0 0 0 22 30 z M 22 34 A 1 1 0 0 0 21 35 A 1 1 0 0 0 22 36 A 1 1 0 0 0 23 35 A 1 1 0 0 0 22 34 z M 22 38 A 1 1 0 0 0 21 39 A 1 1 0 0 0 22 40 A 1 1 0 0 0 23 39 A 1 1 0 0 0 22 38 z M 22 42 A 1 1 0 0 0 21 43 A 1 1 0 0 0 22 44 A 1 1 0 0 0 23 43 A 1 1 0 0 0 22 42 z M 22 46 A 1 1 0 0 0 21 47 A 1 1 0 0 0 22 48 A 1 1 0 0 0 23 47 A 1 1 0 0 0 22 46 z M 22 50 A 1 1 0 0 0 21 51 A 1 1 0 0 0 22 52 A 1 1 0 0 0 23 51 A 1 1 0 0 0 22 50 z M 22 54 A 1 1 0 0 0 21 55 A 1 1 0 0 0 22 56 A 1 1 0 0 0 23 55 A 1 1 0 0 0 22 54 z M 19.759766 61 L 68.105469 61 L 66.978516 67.349609 C 66.783811 68.449118 65.758659 69.164069 64.660156 68.96875 L 19.759766 61 z"/>
</svg>
